# xmcd CD database file
#
# Track frame offsets:
#	150
#	21205
#	48986
#	69155
#	90937
#	125236
#	143818
#	166973
#	198190
#	221188
#	239659
#
# Disc length: 3662 seconds
#
# Revision: 2
# Processed by: cddbd v1.5.2PL0 Copyright (c) Steve Scherf et al.
# Submitted via: CDex 1.51
#
DISCID=9b0e4c0b
DTITLE=HOBO BLUES BAND - Platina Sorozat
DYEAR=2005
DGENRE=Blues
TTITLE0=A Háro Testõr D'artagnan Ellen
TTITLE1=Nyolc Perces Szerelem
TTITLE2=Barbie Baba Blues
TTITLE3=Az Út Vadabb Felén
TTITLE4=Hû Asszony Blues
TTITLE5=Hibás A Térkép
TTITLE6=Vissza A 66-os Úton
TTITLE7=Vidéki Angyal
TTITLE8=Chicago Vár
TTITLE9=Rock And Roll Rádió
TTITLE10=Nem Lehet Két Hazád
EXTD=YEAR: 2005
EXTT0=
EXTT1=
EXTT2=
EXTT3=
EXTT4=
EXTT5=
EXTT6=
EXTT7=
EXTT8=
EXTT9=
EXTT10=
PLAYORDER=
